<svg width="200" height="200" viewBox="0 0 200 200" fill="none" xmlns="http://www.w3.org/2000/svg">
<path d="M18.3975 52.8868L100 5.7735L181.603 52.8868V147.113L100 194.227L18.3975 147.113V52.8868Z" stroke="black" stroke-width="10"/>
<path fill-rule="evenodd" clip-rule="evenodd" d="M145 74.0666V85.5248L99.9809 111.517L96.0191 109.229L93 104L144.962 74L145 74.0666Z" fill="black"/>
<path fill-rule="evenodd" clip-rule="evenodd" d="M55 85.547V74L55 74L106.962 104L103.945 109.225L99.978 111.515L55 85.547Z" fill="black"/>
<path fill-rule="evenodd" clip-rule="evenodd" d="M55 126V74.0008L65 79.7743V120.226L55 126ZM55.0001 126H55V126L55.0001 126Z" fill="black"/>
<path fill-rule="evenodd" clip-rule="evenodd" d="M135 126V79.7512L144.961 74H145V120.226L135 126ZM135 126H135V126L135 126Z" fill="black"/>
</svg>
